<?xml version="1.0" encoding="UTF-8" standalone="no"?>
<svg
   xmlns:dc="http://purl.org/dc/elements/1.1/"
   xmlns:cc="http://creativecommons.org/ns#"
   xmlns:rdf="http://www.w3.org/1999/02/22-rdf-syntax-ns#"
   xmlns:svg="http://www.w3.org/2000/svg"
   xmlns="http://www.w3.org/2000/svg"
   xmlns:sodipodi="http://sodipodi.sourceforge.net/DTD/sodipodi-0.dtd"
   xmlns:inkscape="http://www.inkscape.org/namespaces/inkscape"
   version="1.1"
   x="0px"
   y="0px"
   width="32px"
   height="32px"
   viewBox="0 0 32 32"
   enable-background="new 0 0 32 32"
   xml:space="preserve"
   id="svg2"
   >

<metadata><rdf:RDF>

   <cc:Work rdf:about="">
   <dc:format>image/svg+xml</dc:format>
   <dc:type rdf:resource="http://purl.org/dc/dcmitype/StillImage" />
   <dc:title>PICOL Icon</dc:title>
   <dc:date>2009-03-15</dc:date>
   <dc:creator><cc:Agent><dc:title>Melih Bilgil</dc:title></cc:Agent></dc:creator>
   <dc:rights><cc:Agent><dc:title>Creative Commons BY-SA</dc:title></cc:Agent></dc:rights>
   <dc:publisher><cc:Agent><dc:title>PICOL - Pictorial Communication Language</dc:title></cc:Agent></dc:publisher>
   <dc:identifier>http://blog.picol.org</dc:identifier>
   <dc:source>http://blog.picol.org</dc:source>
   <dc:language>en</dc:language>
   <dc:subject>
     <rdf:Bag>
       <rdf:li>PICOL</rdf:li>
       <rdf:li>icon</rdf:li>
       <rdf:li>icons</rdf:li>
       <rdf:li>sign</rdf:li>
       <rdf:li>GUI</rdf:li>
       <rdf:li>vector</rdf:li>
       <rdf:li>interface</rdf:li>
     </rdf:Bag>
   </dc:subject>
   <dc:description>This is one icon out of all PICOL icons</dc:description>
   <dc:contributor>
       <cc:Agent><dc:title>Melih Bilgil (www.lonja.de), Christopher Adjei (www.boffer.net)</dc:title></cc:Agent></dc:contributor>
   <cc:license rdf:resource="http://creativecommons.org/licenses/by-sa/3.0/" /></cc:Work>
   <cc:License rdf:about="http://creativecommons.org/licenses/by-sa/3.0/">
       <cc:permits rdf:resource="http://creativecommons.org/ns#Reproduction" />
       <cc:permits rdf:resource="http://creativecommons.org/ns#Distribution" />
       <cc:requires rdf:resource="http://creativecommons.org/ns#Notice" />
       <cc:requires rdf:resource="http://creativecommons.org/ns#Attribution" />
       <cc:permits rdf:resource="http://creativecommons.org/ns#DerivativeWorks" />
       <cc:requires rdf:resource="http://creativecommons.org/ns#ShareAlike" /></cc:License>

   </rdf:RDF>
</metadata>

<g id="background">
	<rect fill="none" width="32" height="32"/>
</g>
<g id="script">
	<g>
		<path d="M3.382,31.999l0.723-1.445c-0.004-0.005,0.468-0.934,0.945-2.371l0,0C5.532,26.747,6.002,24.834,6,23l0,0
			c0.017-1.679-0.921-4.14-1.93-6.629l0,0C3.08,13.86,2.017,11.322,2,8.999l0,0C2.015,4.68,4.083,0.622,4.105,0.552l0,0L4.381,0
			h24.234l-0.723,1.446c0.004,0.004-0.466,0.933-0.946,2.369l0,0c-0.479,1.438-0.949,3.352-0.947,5.185l0,0
			c-0.017,1.679,0.921,4.14,1.928,6.63l0,0c0.993,2.509,2.056,5.048,2.072,7.371l0,0c-0.017,4.319-2.082,8.377-2.106,8.445l0,0
			l-0.276,0.554H3.382L3.382,31.999z M26.355,29.999c0.181-0.414,0.437-1.041,0.694-1.816l0,0c0.481-1.436,0.951-3.349,0.949-5.183
			l0,0c0.017-1.679-0.921-4.14-1.928-6.629l0,0c-0.992-2.511-2.056-5.048-2.072-7.372l0,0C24.01,6.232,24.861,3.573,25.479,2l0,0
			H5.642c-0.18,0.414-0.436,1.041-0.695,1.814l0,0C4.468,5.252,3.998,7.166,4,8.999l0,0c-0.019,1.679,0.921,4.14,1.928,6.63l0,0
			C6.921,18.138,7.981,20.677,8,23l0,0c-0.011,2.768-0.862,5.427-1.479,6.999l0,0H26.355L26.355,29.999z"/>
	</g>
</g>
</svg>
